<?xml version="1.0" encoding="UTF-8" standalone="no"?>
<!-- Created with Inkscape (http://www.inkscape.org/) -->

<svg
   width="60.224247mm"
   height="15.89748mm"
   viewBox="0 0 60.224247 15.89748"
   version="1.1"
   id="svg1"
   xml:space="preserve"
   xmlns:inkscape="http://www.inkscape.org/namespaces/inkscape"
   xmlns:sodipodi="http://sodipodi.sourceforge.net/DTD/sodipodi-0.dtd"
   xmlns="http://www.w3.org/2000/svg"
   xmlns:svg="http://www.w3.org/2000/svg"><sodipodi:namedview
     id="namedview1"
     pagecolor="#ffffff"
     bordercolor="#000000"
     borderopacity="0.25"
     inkscape:showpageshadow="2"
     inkscape:pageopacity="0.0"
     inkscape:pagecheckerboard="0"
     inkscape:deskcolor="#d1d1d1"
     inkscape:document-units="mm"
     showgrid="false"><inkscape:grid
       id="grid1"
       units="mm"
       originx="-391.309"
       originy="-620.52487"
       spacingx="0.99999998"
       spacingy="1"
       empcolor="#0099e5"
       empopacity="0.30196078"
       color="#0099e5"
       opacity="0.14901961"
       empspacing="5"
       dotted="false"
       gridanglex="30"
       gridanglez="30"
       visible="false" /></sodipodi:namedview><defs
     id="defs1" /><g
     inkscape:label="Layer 1"
     inkscape:groupmode="layer"
     id="layer1"
     transform="translate(-103.53384,-164.18054)"><rect
       style="fill:none;fill-opacity:1;stroke-width:0.264583"
       id="rect3"
       width="74.505814"
       height="24.83527"
       x="96.393105"
       y="159.71178"
       ry="0"
       inkscape:export-filename="peworld-black.svg"
       inkscape:export-xdpi="96"
       inkscape:export-ydpi="96" /><path
       id="path1"
       style="fill:#ffffff;fill-opacity:1;stroke-width:0.0326104"
       d="m 111.43056,164.18187 c -0.0734,0.007 -0.13346,0.0359 -0.26975,0.0956 -0.1363,0.0597 -0.33452,0.15182 -0.61909,0.28938 -0.56914,0.27514 -1.48471,0.73108 -2.93935,1.45883 -0.9994,0.49999 -1.92054,0.96442 -2.59984,1.31051 -0.33966,0.17305 -0.61954,0.31677 -0.81804,0.42013 -0.0992,0.0517 -0.17783,0.0924 -0.23461,0.12299 -0.0284,0.0153 -0.0507,0.0288 -0.0682,0.0388 -0.0175,0.01 -0.0241,0.0109 -0.045,0.0274 -0.17913,0.14231 -0.30351,0.37397 -0.30283,0.5917 2.7e-4,0.11367 0.038,0.23364 0.0899,0.34416 0.0519,0.11052 0.11193,0.21024 0.20516,0.2713 0.0302,0.0198 0.0548,0.0291 0.11524,0.0605 0.0604,0.0314 0.14349,0.0759 0.24804,0.12919 0.20912,0.10659 0.49973,0.25314 0.84543,0.42737 0.6914,0.34846 1.60267,0.80509 2.512,1.25987 0.90932,0.45478 1.81719,0.90833 2.50579,1.25005 0.3443,0.17086 0.63272,0.31446 0.83974,0.416 0.10351,0.0508 0.18676,0.0909 0.24598,0.11937 0.0296,0.0142 0.0546,0.0249 0.0724,0.0331 0.0177,0.008 0.0166,0.0113 0.0429,0.0196 0.11911,0.0376 0.24819,0.0406 0.41806,-0.0119 0.16987,-0.0525 0.39347,-0.1562 0.75603,-0.33383 0.38661,-0.18942 0.79211,-0.39527 0.9157,-0.46302 0.10653,-0.0584 0.60598,-0.30839 1.08986,-0.54673 1.39508,-0.68722 2.58586,-1.27732 2.84014,-1.41025 0.12273,-0.0641 0.57779,-0.29629 1.00769,-0.51005 0.21617,-0.10748 0.42114,-0.21231 0.57825,-0.29662 0.0786,-0.0422 0.14474,-0.0803 0.19534,-0.10956 0.0506,-0.0293 0.0747,-0.0386 0.11111,-0.0723 0.0746,-0.0692 0.13506,-0.16633 0.18345,-0.26924 0.0484,-0.1029 0.0842,-0.20504 0.0842,-0.30489 0,-0.1858 -0.10119,-0.38028 -0.25373,-0.53485 -0.0191,-0.0194 -0.0291,-0.0248 -0.045,-0.0351 -0.0159,-0.0103 -0.0352,-0.0219 -0.0589,-0.0357 -0.0474,-0.0276 -0.1118,-0.064 -0.19534,-0.10903 -0.16707,-0.09 -0.40796,-0.21617 -0.7245,-0.37879 -0.63309,-0.32523 -1.56853,-0.79642 -2.80863,-1.41645 -1.80442,-0.9022 -2.73062,-1.36505 -3.22821,-1.60145 -0.24881,-0.11821 -0.39061,-0.17948 -0.48628,-0.21291 -0.0957,-0.0334 -0.16049,-0.0374 -0.20515,-0.0331 z m 0.0605,1.64847 2.70474,1.35548 c 0.75635,0.37832 1.4493,0.72684 1.95544,0.98237 0.25307,0.12776 0.45919,0.23264 0.60358,0.30644 0.0545,0.0278 0.0907,0.046 0.12661,0.0646 -0.026,0.0138 -0.0426,0.0234 -0.076,0.0408 -0.1416,0.0739 -0.3479,0.17975 -0.60151,0.30903 -0.50722,0.25853 -1.20633,0.61204 -1.97662,0.99787 l -2.75177,1.37872 -0.22273,-0.11678 c -0.15345,-0.0801 -0.65469,-0.32883 -1.12138,-0.55863 -0.46584,-0.22936 -0.95411,-0.47589 -1.07383,-0.5395 -0.13243,-0.0704 -0.64914,-0.32604 -1.16066,-0.57774 -0.25524,-0.12561 -0.50453,-0.2495 -0.69918,-0.34779 -0.19465,-0.0983 -0.34074,-0.1758 -0.37104,-0.19326 -0.0906,-0.0523 -0.32349,-0.16917 -0.53485,-0.27182 -0.0836,-0.0406 -0.15065,-0.0794 -0.21084,-0.11318 0.0213,-0.0113 0.0329,-0.0177 0.0584,-0.031 0.13817,-0.0724 0.33752,-0.17483 0.5762,-0.29714 0.47736,-0.24463 1.11703,-0.56855 1.7694,-0.89814 0.65237,-0.32959 1.31545,-0.6636 1.84175,-0.92604 0.52629,-0.26244 0.92216,-0.4579 1.00976,-0.49608 z m 44.54043,2.49856 v 7.50445 h 1.47123 v -7.50445 z m 6.25078,0 v 1.72651 c 0,0.31512 0.0371,0.67347 0.11111,1.07539 h -0.0486 c -0.35691,-0.52733 -0.87442,-0.79065 -1.55287,-0.79065 -0.6463,0 -1.15417,0.24741 -1.52394,0.7426 -0.36656,0.49196 -0.54984,1.18022 -0.54984,2.06447 0,0.87137 0.17989,1.55287 0.54002,2.04483 0.36334,0.49197 0.86156,0.73794 1.495,0.73794 0.68488,0 1.1947,-0.26528 1.5291,-0.79582 h 0.0625 l 0.28474,0.69918 h 1.12861 v -7.50445 z m -37.22977,0.4532 v 7.05125 h 1.495 v -2.50786 h 0.64183 c 0.87459,0 1.54788,-0.20113 2.02054,-0.60306 0.47588,-0.40193 0.71417,-0.98214 0.71417,-1.74098 0,-0.7299 -0.22381,-1.2783 -0.67076,-1.64485 -0.44372,-0.36978 -1.0929,-0.5545 -1.9482,-0.5545 z m 1.495,1.22525 h 0.68007 c 0.40836,0 0.70739,0.0834 0.8971,0.25063 0.19293,0.1672 0.28939,0.42622 0.28939,0.7767 0,0.34726 -0.11381,0.61254 -0.3421,0.79582 -0.22829,0.18007 -0.57269,0.26975 -1.0325,0.26975 h -0.49196 z m 6.81509,0.3328 c -0.79742,0 -1.42248,0.24741 -1.87585,0.7426 -0.45016,0.49196 -0.67541,1.18987 -0.67541,2.09341 0,0.8778 0.24455,1.55591 0.73328,2.03502 0.48875,0.47908 1.16686,0.71882 2.03502,0.71882 0.42122,0 0.77813,-0.0323 1.07074,-0.0966 0.2926,-0.0611 0.56752,-0.15561 0.82475,-0.28422 v -1.13843 c -0.3151,0.14791 -0.61701,0.25545 -0.9064,0.32298 -0.28939,0.0675 -0.59664,0.10128 -0.92139,0.10128 -0.41801,0 -0.74259,-0.11719 -0.9741,-0.35191 -0.23152,-0.23474 -0.35549,-0.56128 -0.37156,-0.97928 h 3.47731 v -0.71369 c 0,-0.76527 -0.21222,-1.36478 -0.63665,-1.79886 -0.42444,-0.43408 -1.01769,-0.65112 -1.77974,-0.65112 z m 14.36812,0 c -0.8328,0 -1.4791,0.24403 -1.9389,0.73277 -0.45981,0.48874 -0.68937,1.17363 -0.68937,2.05465 0,0.56593 0.10611,1.06127 0.31833,1.4857 0.21221,0.42444 0.51607,0.75097 0.91157,0.97927 0.3955,0.22508 0.85174,0.33745 1.36943,0.33745 0.82636,0 1.47123,-0.24742 1.93425,-0.74259 0.46302,-0.49518 0.69453,-1.18202 0.69453,-2.05983 0,-0.56591 -0.10612,-1.05931 -0.31833,-1.48053 -0.21222,-0.42122 -0.51608,-0.74437 -0.91157,-0.96945 -0.3955,-0.22508 -0.85226,-0.33744 -1.36994,-0.33744 z m 6.8249,0 c -0.3344,0 -0.64452,0.0931 -0.93069,0.27958 -0.28295,0.18326 -0.5082,0.42587 -0.67541,0.72811 h -0.0724 l -0.21704,-0.90641 h -1.11414 v 5.39192 h 1.47123 v -2.74402 c 0,-0.43408 0.13022,-0.7717 0.39067,-1.01286 0.26367,-0.24115 0.63023,-0.36173 1.09967,-0.36173 0.17042,0 0.31511,0.0159 0.43409,0.0481 l 0.11058,-1.37925 c -0.13183,-0.0289 -0.29725,-0.0434 -0.49661,-0.0434 z m -18.25573,0.10129 1.53376,5.39191 h 1.58233 l 0.98392,-4.26847 h 0.0336 l 0.55965,2.3828 0.41445,1.88567 h 1.60145 l 1.55288,-5.39191 h -1.44177 l -0.64648,2.38745 c -0.0322,0.14148 -0.0852,0.41445 -0.15916,0.81959 -0.074,0.40192 -0.12558,0.71882 -0.15451,0.95033 h -0.0289 c -0.003,-0.09 -0.0157,-0.20917 -0.0382,-0.35708 -0.0193,-0.15113 -0.042,-0.30353 -0.0677,-0.45786 -0.0257,-0.15755 -0.0532,-0.30563 -0.0822,-0.4439 -0.0257,-0.13826 -0.045,-0.24293 -0.0579,-0.31367 l -0.63149,-2.58486 h -1.62057 l -0.66559,2.58486 -0.0775,0.41031 c -0.0997,0.53054 -0.1556,0.91783 -0.16846,1.1622 h -0.0289 c -0.10289,-0.75241 -0.20418,-1.34227 -0.30386,-1.76992 l -0.62218,-2.38745 z m -17.7953,0.81287 a 0.10964249,0.10964249 0 0 0 -0.0548,0.0114 l -3.49023,1.74821 c -1.30711,0.65475 -2.18364,1.08992 -2.73988,1.35961 -0.27812,0.13485 -0.47734,0.2287 -0.60772,0.28681 -0.0652,0.029 -0.11369,0.0489 -0.14469,0.0605 -0.008,0.003 -0.0101,0.004 -0.0155,0.006 -0.0154,-0.007 -0.0363,-0.0174 -0.0625,-0.0295 -0.0538,-0.0247 -0.1282,-0.0593 -0.21653,-0.1018 -0.17665,-0.085 -0.41048,-0.20002 -0.65836,-0.324 -0.49643,-0.2483 -2.03819,-1.02106 -3.42769,-1.71669 -1.40122,-0.70152 -2.07432,-1.04117 -2.44947,-1.19167 -0.18757,-0.0753 -0.30456,-0.10593 -0.40979,-0.10129 -0.10523,0.005 -0.17777,0.0473 -0.25218,0.0837 -0.48201,0.23583 -0.58757,0.86562 -0.20309,1.23248 0.0191,0.0182 0.0292,0.0216 0.045,0.0315 0.0158,0.01 0.0346,0.0215 0.0584,0.0351 0.0475,0.0272 0.11303,0.0633 0.19534,0.10749 0.16462,0.0884 0.3985,0.21038 0.69556,0.36329 0.59413,0.30581 1.44003,0.7336 2.48254,1.25573 1.8385,0.9208 3.49588,1.74859 3.70313,1.84744 0.25731,0.12273 0.40666,0.18153 0.54106,0.18191 0.0742,2.3e-4 0.1265,-0.0243 0.24959,-0.0765 0.1231,-0.0522 0.30541,-0.13679 0.58033,-0.26924 0.54983,-0.26489 1.46983,-0.72271 3.01739,-1.49602 1.31954,-0.65937 2.24452,-1.12536 2.8515,-1.43765 0.30349,-0.15614 0.52683,-0.27308 0.68161,-0.3576 0.0774,-0.0423 0.13906,-0.0764 0.18397,-0.10335 0.0449,-0.0269 0.0702,-0.0409 0.0992,-0.0682 0.1414,-0.13346 0.23384,-0.27672 0.26562,-0.43201 0.0318,-0.15529 -0.003,-0.31505 -0.0879,-0.47026 -0.13884,-0.25267 -0.3663,-0.40655 -0.64027,-0.42426 a 0.10964249,0.10964249 0 0 0 -0.002,0 z m 14.86783,0.13228 c 0.31189,0 0.55931,0.0999 0.74259,0.29922 0.18304,0.19613 0.27807,0.47587 0.28474,0.83922 h -2.06448 c 0.0257,-0.36335 0.12702,-0.64309 0.30386,-0.83922 0.17685,-0.19937 0.42139,-0.29922 0.73329,-0.29922 z m 14.33918,0.14005 c 0.3955,0 0.68006,0.13309 0.85369,0.39997 0.17363,0.26689 0.26045,0.6672 0.26045,1.20096 0,0.53698 -0.0868,0.94212 -0.26045,1.21543 -0.17042,0.2701 -0.4516,0.40515 -0.84387,0.40515 -0.3955,0 -0.68201,-0.13648 -0.85887,-0.4098 -0.17363,-0.27331 -0.26045,-0.67702 -0.26045,-1.21078 0,-0.53697 0.0868,-0.93729 0.26045,-1.20096 0.17364,-0.26688 0.45677,-0.39997 0.84905,-0.39997 z m 13.53354,0.009 c 0.40192,0 0.69132,0.12539 0.86816,0.37619 0.18007,0.25081 0.27027,0.6656 0.27027,1.24437 v 0.15917 c -0.0161,0.52411 -0.11254,0.8955 -0.28939,1.11414 -0.17363,0.21865 -0.44855,0.32814 -0.82475,0.32814 -0.34084,0 -0.60272,-0.13165 -0.786,-0.39532 -0.18328,-0.26687 -0.27492,-0.66576 -0.27492,-1.1963 0,-0.53054 0.0897,-0.93426 0.26975,-1.21078 0.18328,-0.27974 0.4389,-0.41961 0.76688,-0.41961 z m -42.73848,3.39616 a 0.10964249,0.10964249 0 0 0 -0.0568,0.0114 l -3.49023,1.74823 c -1.30711,0.65474 -2.18364,1.08939 -2.73988,1.35908 -0.27812,0.13484 -0.47734,0.22921 -0.60772,0.28732 -0.0652,0.029 -0.11369,0.0489 -0.14469,0.0605 -0.008,0.003 -0.0101,0.004 -0.0155,0.006 -0.0154,-0.007 -0.0363,-0.0175 -0.0625,-0.0295 -0.0538,-0.0245 -0.12823,-0.0596 -0.21653,-0.1018 -0.1766,-0.0845 -0.41059,-0.198 -0.65836,-0.32194 -0.49643,-0.2483 -2.03819,-1.02158 -3.42769,-1.7172 -1.40122,-0.70151 -2.07432,-1.04065 -2.44947,-1.19115 -0.18757,-0.0752 -0.30456,-0.10645 -0.40979,-0.1018 -0.10523,0.005 -0.17777,0.0478 -0.25218,0.0842 -0.48201,0.23582 -0.58757,0.86562 -0.20309,1.23248 0.0192,0.0183 0.0292,0.0211 0.045,0.031 0.0158,0.01 0.0347,0.0215 0.0584,0.0351 0.0475,0.0272 0.11303,0.0634 0.19534,0.10748 0.16461,0.0882 0.39851,0.21063 0.69556,0.3633 0.59411,0.30531 1.44005,0.73206 2.48254,1.25418 1.8385,0.92079 3.49591,1.74859 3.70313,1.84743 0.25731,0.12272 0.40667,0.18154 0.54106,0.1819 0.0742,2.5e-4 0.1265,-0.0243 0.24959,-0.0765 0.1231,-0.0522 0.30541,-0.1368 0.58033,-0.26924 0.54983,-0.26491 1.46983,-0.72324 3.01739,-1.49656 1.31954,-0.65937 2.24452,-1.12484 2.8515,-1.43712 0.30349,-0.15613 0.52683,-0.27306 0.68161,-0.35759 0.0774,-0.0423 0.13906,-0.0764 0.18397,-0.10335 0.0449,-0.0269 0.0702,-0.0414 0.0992,-0.0687 0.1413,-0.13336 0.2338,-0.27453 0.26562,-0.42943 0.0318,-0.15489 -0.003,-0.31566 -0.0879,-0.47077 -0.13871,-0.25244 -0.3657,-0.40806 -0.64027,-0.42582 z"
       inkscape:export-filename="peworld-black-wo-bg.svg"
       inkscape:export-xdpi="96"
       inkscape:export-ydpi="96" /></g></svg>
