<?xml version="1.0" standalone="no"?>
<!DOCTYPE svg PUBLIC "-//W3C//DTD SVG 20010904//EN"
 "http://www.w3.org/TR/2001/REC-SVG-20010904/DTD/svg10.dtd">
<svg version="1.0" xmlns="http://www.w3.org/2000/svg"
 width="260.000000pt" height="260.000000pt" viewBox="0 0 260.000000 260.000000"
 preserveAspectRatio="xMidYMid meet">
<metadata>
Created by potrace 1.14, written by Peter Selinger 2001-2017
</metadata>
<g transform="translate(0.000000,260.000000) scale(0.100000,-0.100000)"
fill="#000000" stroke="none">
<path d="M1125 2589 c-208 -27 -436 -121 -612 -254 -92 -69 -251 -242 -312
-339 -267 -429 -267 -963 0 -1393 69 -109 232 -281 343 -360 147 -105 322
-181 506 -220 131 -27 382 -25 520 6 507 111 890 494 1001 1001 34 150 34 390
0 540 -147 669 -766 1105 -1446 1019z m585 -649 c244 -123 386 -200 400 -217
29 -37 26 -86 -7 -122 -37 -40 -761 -401 -803 -401 -19 0 -173 72 -418 194
-411 205 -412 206 -412 275 0 16 10 41 21 56 28 35 767 405 810 405 18 0 175
-73 409 -190z m-762 -700 c189 -93 347 -170 353 -170 5 0 162 77 349 170 382
191 398 196 451 139 38 -41 40 -94 5 -132 -27 -30 -776 -407 -807 -407 -32 0
-795 387 -813 412 -27 38 -21 95 13 129 53 53 69 48 449 -141z m1 -375 l351
-175 350 175 c226 113 361 175 381 175 22 0 41 -10 65 -34 41 -41 46 -89 13
-130 -28 -35 -768 -406 -810 -406 -42 0 -781 372 -808 407 -51 63 -2 162 80
163 15 0 182 -77 378 -175z"/>
<path d="M1050 1786 l-245 -124 248 -123 248 -124 244 125 244 125 -242 122
c-133 67 -244 122 -247 122 -3 0 -115 -56 -250 -123z"/>
</g>
</svg>
