<?xml version="1.0" encoding="UTF-8" standalone="no"?>
<!-- Created with Inkscape (http://www.inkscape.org/) -->

<svg
   width="67.670601mm"
   height="38.07803mm"
   viewBox="0 0 67.670601 38.07803"
   version="1.1"
   id="svg1"
   xml:space="preserve"
   xmlns:inkscape="http://www.inkscape.org/namespaces/inkscape"
   xmlns:sodipodi="http://sodipodi.sourceforge.net/DTD/sodipodi-0.dtd"
   xmlns="http://www.w3.org/2000/svg"
   xmlns:svg="http://www.w3.org/2000/svg"><sodipodi:namedview
     id="namedview1"
     pagecolor="#ffffff"
     bordercolor="#000000"
     borderopacity="0.25"
     inkscape:showpageshadow="2"
     inkscape:pageopacity="0.0"
     inkscape:pagecheckerboard="0"
     inkscape:deskcolor="#d1d1d1"
     inkscape:document-units="mm" /><defs
     id="defs1" /><g
     inkscape:label="Layer 1"
     inkscape:groupmode="layer"
     id="layer1"
     transform="translate(-69.019586,-83.544561)"><path
       style="fill:#ffffff"
       d="M 101.1231,121.23628 C 100.67994,121.01756 93.336535,113.84676 84.804425,105.30116 71.067914,91.542939 69.270561,89.649019 69.108657,88.762169 c -0.244748,-1.34065 0.0134,-2.48126 0.792864,-3.50319 1.394546,-1.82834 -0.824841,-1.71297 32.953369,-1.71297 33.77821,0 31.55882,-0.11537 32.95337,1.71297 0.77946,1.02193 1.03761,2.16254 0.79286,3.50319 -0.1619,0.88686 -1.9597,2.78121 -15.70027,16.543501 -8.53459,8.54808 -15.89599,15.72159 -16.35866,15.94115 -1.06376,0.50478 -2.38321,0.50072 -3.41909,-0.0105 z"
       id="path1"
       inkscape:export-filename="path1.png"
       inkscape:export-xdpi="96"
       inkscape:export-ydpi="96" /></g></svg>
