<?xml version="1.0" encoding="UTF-8" standalone="no"?>
<!-- Created with Inkscape (http://www.inkscape.org/) -->

<svg
   width="6.3499999mm"
   height="6.3499842mm"
   viewBox="0 0 6.3499999 6.3499842"
   version="1.1"
   id="svg1"
   xml:space="preserve"
   xmlns:inkscape="http://www.inkscape.org/namespaces/inkscape"
   xmlns:sodipodi="http://sodipodi.sourceforge.net/DTD/sodipodi-0.dtd"
   xmlns="http://www.w3.org/2000/svg"
   xmlns:svg="http://www.w3.org/2000/svg"><sodipodi:namedview
     id="namedview1"
     pagecolor="#ffffff"
     bordercolor="#000000"
     borderopacity="0.25"
     inkscape:showpageshadow="2"
     inkscape:pageopacity="0.0"
     inkscape:pagecheckerboard="0"
     inkscape:deskcolor="#d1d1d1"
     inkscape:document-units="mm" /><defs
     id="defs1" /><g
     inkscape:label="Layer 1"
     inkscape:groupmode="layer"
     id="layer1"
     transform="translate(-52.368066,-189.53994)"><path
       style="fill:#9ea0a5;fill-opacity:1;stroke-width:0.0941316"
       d="m 55.135359,195.87361 c -1.204684,-0.16687 -2.229939,-1.00654 -2.605813,-2.13412 -0.126304,-0.3789 -0.161483,-0.60249 -0.161483,-1.02638 0,-0.42556 0.03502,-0.6467 0.163643,-1.03329 0.299822,-0.90116 1.077512,-1.67654 1.984388,-1.9785 0.379116,-0.12623 0.602838,-0.16139 1.026969,-0.16139 0.424131,0 0.647853,0.0352 1.026968,0.16139 0.906877,0.30196 1.684567,1.07734 1.984389,1.9785 0.128621,0.38659 0.163643,0.60773 0.163643,1.03329 0,0.27516 -0.01278,0.44667 -0.04454,0.59757 -0.142052,0.67491 -0.442408,1.22378 -0.923952,1.68841 -0.452398,0.4365 -0.974339,0.71084 -1.59614,0.83894 -0.239766,0.0494 -0.781627,0.0683 -1.018068,0.0356 z m 0.233314,-0.93208 v -0.53532 h -0.435358 -0.435358 l 0.02213,0.056 c 0.16889,0.42759 0.424201,0.78889 0.674198,0.95407 0.177328,0.11718 0.174389,0.12518 0.174389,-0.47477 z m 0.524518,0.47222 c 0.119916,-0.0756 0.276301,-0.23311 0.377437,-0.38002 0.07446,-0.10817 0.24353,-0.43232 0.291579,-0.55905 l 0.02596,-0.0685 H 56.15281 55.717453 v 0.53532 c 0,0.60045 -0.0052,0.5864 0.175738,0.47222 z m -1.369788,-0.14231 c -0.120224,-0.18372 -0.235946,-0.4059 -0.324348,-0.62271 l -0.0938,-0.23007 -0.404764,-0.007 -0.404764,-0.007 0.07616,0.0961 c 0.225876,0.28503 0.675783,0.62834 1.016663,0.77578 0.09375,0.0406 0.174365,0.0741 0.179136,0.0746 0.0048,4.7e-4 -0.01515,-0.0355 -0.04428,-0.08 z m 2.22477,-0.0167 c 0.293093,-0.12704 0.755128,-0.48749 0.966071,-0.75367 l 0.07616,-0.0961 -0.404764,0.007 -0.404764,0.007 -0.0938,0.23006 c -0.08846,0.21696 -0.204082,0.43891 -0.324609,0.62312 l -0.05321,0.0813 0.05876,-0.0229 c 0.03232,-0.0126 0.113392,-0.0466 0.180164,-0.0755 z m -2.75907,-1.27802 c -0.04695,-0.17331 -0.139969,-0.87592 -0.140091,-1.05819 -1.6e-5,-0.024 -0.125963,-0.0311 -0.546633,-0.0311 -0.300636,0 -0.552584,0.01 -0.559883,0.0215 -0.02225,0.036 0.05799,0.47373 0.121494,0.6628 0.03288,0.0979 0.08797,0.24169 0.122417,0.31953 l 0.06263,0.14154 h 0.477621 0.47762 z m 1.373809,-0.51042 -0.0067,-0.56644 H 54.79568 54.235141 l 0.0068,0.18674 c 0.0085,0.23268 0.043,0.50217 0.09636,0.75318 l 0.04103,0.19296 h 0.49512 0.49512 z m 1.384784,0.37348 c 0.04719,-0.22241 0.07947,-0.45475 0.10386,-0.74743 l 0.01716,-0.20589 -0.569402,0.007 -0.569402,0.007 -0.0067,0.56644 -0.0067,0.56645 h 0.495122 0.49512 z m 1.403237,-0.0809 c 0.10307,-0.25877 0.170898,-0.53018 0.186671,-0.74696 l 0.0082,-0.11204 -0.55431,-0.007 c -0.434809,-0.005 -0.554315,9e-5 -0.554331,0.0249 -9.4e-5,0.18298 -0.09307,0.88507 -0.140234,1.05921 l -0.01532,0.0566 0.48262,-0.007 0.482622,-0.007 z m -4.290109,-1.41299 c 0.02365,-0.28373 0.08424,-0.72859 0.112778,-0.82804 0.01368,-0.0477 0.02487,-0.0951 0.02487,-0.10549 0,-0.0104 -0.213474,-0.0188 -0.474386,-0.0188 h -0.474385 l -0.07279,0.16213 c -0.04003,0.0892 -0.09592,0.23699 -0.124192,0.32847 -0.05851,0.18934 -0.130168,0.60102 -0.110223,0.63327 0.0073,0.0118 0.25829,0.0215 0.557758,0.0215 h 0.544486 z m 1.502088,-0.38593 0.0067,-0.56644 h -0.498725 c -0.274297,0 -0.498723,0.007 -0.498723,0.0148 0,0.008 -0.02173,0.12297 -0.04828,0.25521 -0.0561,0.27936 -0.11171,0.81331 -0.0886,0.85068 0.0103,0.0166 0.209298,0.0233 0.568393,0.0189 l 0.552549,-0.007 z m 1.481239,0.3797 c -0.0085,-0.23268 -0.043,-0.50217 -0.09636,-0.75318 l -0.04103,-0.19296 h -0.494653 -0.494652 v 0.55607 c 0,0.30583 0.0077,0.56374 0.01707,0.57313 0.0094,0.009 0.264435,0.014 0.566766,0.0104 l 0.549694,-0.007 z m 1.493643,0.0747 c -0.01526,-0.21476 -0.08344,-0.48731 -0.186861,-0.74696 l -0.104131,-0.26143 -0.482621,-0.007 -0.482621,-0.007 0.01532,0.0566 c 0.04716,0.17414 0.140114,0.87622 0.140235,1.05921 1.6e-5,0.0248 0.119521,0.0301 0.55433,0.0249 l 0.55431,-0.007 z m -4.138739,-1.63684 c 0.08846,-0.21696 0.204083,-0.43891 0.324609,-0.62312 l 0.05321,-0.0813 -0.05876,0.0229 c -0.424309,0.16549 -0.883511,0.49768 -1.146235,0.82921 l -0.07616,0.0961 0.404764,-0.007 0.404764,-0.007 z m 1.169618,-0.2928 c 0,-0.5978 0.0042,-0.58608 -0.168656,-0.47626 -0.19769,0.12563 -0.50092,0.51222 -0.601189,0.76645 -0.01267,0.0321 -0.04097,0.10041 -0.0629,0.15176 l -0.03987,0.0934 h 0.436308 0.436309 z m 1.181525,0.44195 c -0.02193,-0.0513 -0.05024,-0.11964 -0.0629,-0.15176 -0.100271,-0.25423 -0.4035,-0.64082 -0.60119,-0.76645 -0.172806,-0.10982 -0.168656,-0.12154 -0.168656,0.47626 v 0.53532 h 0.436309 0.436308 z m 1.163548,-0.002 c -0.210457,-0.26557 -0.672794,-0.62614 -0.965573,-0.75304 -0.189922,-0.0823 -0.237248,-0.0989 -0.224859,-0.0789 0.233348,0.37743 0.276574,0.46228 0.424897,0.83402 l 0.03725,0.0934 h 0.401969 0.40197 z"
       id="path1"
       inkscape:export-filename="other.png"
       inkscape:export-xdpi="96"
       inkscape:export-ydpi="96" /></g></svg>
